<?xml version="1.0" standalone="no"?>
<!DOCTYPE svg PUBLIC "-//W3C//DTD SVG 20010904//EN"
 "http://www.w3.org/TR/2001/REC-SVG-20010904/DTD/svg10.dtd">
<svg version="1.0" xmlns="http://www.w3.org/2000/svg"
 width="512.000000pt" height="512.000000pt" viewBox="0 0 512.000000 512.000000"
 preserveAspectRatio="xMidYMid meet">

<g transform="translate(0.000000,512.000000) scale(0.100000,-0.100000)"
fill="#000000" stroke="none">
<path d="M2390 5110 c-157 -22 -329 -75 -461 -140 -95 -48 -234 -147 -319
-227 -203 -191 -334 -415 -407 -697 -27 -101 -27 -102 -30 -573 l-4 -473 -123
0 c-201 0 -285 -41 -348 -167 l-33 -68 0 -1260 c0 -1052 2 -1267 14 -1300 32
-93 104 -163 197 -191 73 -22 3296 -21 3371 1 78 23 136 74 175 152 l33 68 0
1265 0 1265 -33 68 c-63 127 -147 167 -349 167 l-123 0 0 428 c0 461 -5 523
-55 697 -86 295 -296 581 -557 756 -162 107 -310 170 -496 209 -111 24 -350
34 -452 20z m405 -519 c317 -91 554 -334 637 -653 20 -77 21 -113 25 -510 l5
-428 -902 0 -902 0 5 428 c4 397 5 433 25 510 87 335 351 591 687 666 99 22
324 15 420 -13z m64 -2361 c103 -25 184 -60 272 -117 90 -58 105 -77 93 -111
-15 -42 -46 -40 -122 11 -91 61 -136 82 -239 113 -123 37 -310 40 -428 6 -110
-32 -206 -85 -286 -159 -38 -35 -74 -63 -81 -63 -20 0 -48 32 -48 54 0 25 92
118 160 163 92 60 209 104 328 123 83 13 254 3 351 -20z m-39 -166 c36 -8 108
-36 160 -61 81 -41 110 -62 202 -153 90 -88 108 -111 108 -136 0 -34 -16 -54
-43 -54 -10 0 -54 38 -99 86 -88 92 -140 132 -229 175 -168 82 -382 83 -552 4
-103 -48 -179 -123 -307 -301 -41 -56 -60 -64 -90 -34 -27 27 -21 45 42 136
97 141 193 231 315 293 125 63 326 81 493 45z m-35 -169 c160 -42 296 -153
370 -301 36 -72 40 -87 43 -171 2 -54 -3 -135 -12 -193 -20 -124 -20 -222 -2
-258 8 -15 37 -55 64 -90 53 -66 58 -93 20 -113 -29 -16 -53 -3 -102 54 -75
88 -96 141 -96 238 0 46 7 125 15 174 20 120 19 224 -2 277 -75 193 -253 306
-467 296 -168 -7 -268 -76 -404 -276 -130 -190 -217 -257 -266 -203 -26 28
-14 52 52 103 41 32 79 78 135 160 119 178 222 263 369 302 71 20 210 20 283
1z m-50 -171 c113 -29 210 -105 261 -206 40 -76 44 -200 14 -362 -26 -137 -23
-217 11 -296 21 -50 87 -120 113 -120 21 0 66 -40 66 -59 0 -10 -9 -26 -20
-36 -17 -16 -25 -17 -58 -7 -181 55 -264 260 -213 528 40 208 25 301 -58 382
-65 63 -123 86 -211 86 -135 -1 -227 -70 -314 -234 -29 -55 -73 -118 -110
-158 -61 -66 -209 -182 -232 -182 -6 0 -22 8 -34 18 -36 29 -20 60 61 117 102
71 180 159 234 264 112 217 295 316 490 265z m555 -134 c57 -30 88 -306 56
-490 -19 -107 -35 -140 -70 -140 -46 0 -51 21 -33 134 21 129 21 261 1 346
-27 117 -28 132 -8 147 21 16 29 16 54 3z m-553 -55 c120 -60 168 -211 111
-351 -63 -157 -251 -366 -513 -569 -110 -85 -120 -90 -151 -70 -24 15 -30 40
-16 61 4 6 64 56 133 112 295 236 471 455 471 584 0 87 -60 158 -135 158 -58
0 -96 -35 -159 -149 -99 -179 -152 -236 -370 -394 -108 -79 -135 -89 -162 -61
-33 32 -19 51 117 152 198 147 256 210 331 359 46 93 89 141 151 169 67 32
127 31 192 -1z m-57 -190 c55 -66 -202 -390 -481 -607 -113 -88 -133 -97 -159
-73 -39 36 -27 58 77 136 193 146 372 337 454 484 18 33 38 63 43 67 18 13 53
9 66 -7z m150 -390 c8 -9 10 -27 6 -47 -26 -135 -12 -183 78 -269 65 -61 75
-101 31 -121 -21 -9 -30 -7 -65 17 -54 38 -94 85 -126 148 -58 114 -33 287 41
287 13 0 28 -7 35 -15z m-183 -271 c42 -21 78 -67 104 -135 18 -48 19 -53 4
-76 -12 -17 -24 -23 -43 -21 -22 2 -32 15 -59 70 -47 98 -83 103 -166 24 -61
-59 -75 -66 -104 -53 -41 18 -31 60 30 118 90 87 158 108 234 73z"/>
</g>
</svg>
